<?xml version="1.0" encoding="UTF-8" standalone="no"?>
<svg width="48px" height="27px" viewBox="0 0 48 27" version="1.1" xmlns="http://www.w3.org/2000/svg" xmlns:xlink="http://www.w3.org/1999/xlink">
    <title>LastFM</title>
    <g id="Page-1" stroke="none" stroke-width="1" fill="none" fill-rule="evenodd">
        <path d="M21.168,24.0491056 L19.4085,19.2058724 C19.4085,19.2058724 16.5495,22.4346946 12.261,22.4346946 C8.4675,22.4346946 5.7735,19.0950051 5.7735,13.7505906 C5.7735,6.90263247 9.1815,4.45443807 12.5355,4.45443807 C17.3745,4.45443807 18.9135,7.62706716 20.2335,11.6911914 L21.993,17.2573405 C23.7525,22.657948 27.051,27 36.5625,27 C43.3815,27 48,24.8844077 48,19.3182585 C48,14.8091461 45.4695,12.4703004 40.7415,11.3570705 L37.2225,10.5779615 C34.803,10.0205872 34.089,9.01822477 34.089,7.34913939 C34.089,5.45528181 35.5725,4.34205197 37.992,4.34205197 C40.632,4.34205197 42.0615,5.34441444 42.2805,7.73793453 L47.7795,7.06969288 C47.34,2.05939926 43.9305,0 38.322,0 C33.3735,0 28.536,1.89233885 28.536,7.96118799 C28.536,11.7458657 30.3495,14.1409045 34.9125,15.2541343 L38.652,16.1441107 C41.457,16.8123523 42.39,17.9817752 42.39,19.5961863 C42.39,21.6555856 40.4115,22.4908876 36.672,22.4908876 C31.119,22.4908876 28.8105,19.5399933 27.4905,15.4758691 L25.6755,9.90971988 C23.367,2.67296659 19.683,0 12.3705,0 C4.2885,0 0,5.17735403 0,13.9738441 C0,22.4346946 4.2885,27 11.9865,27 C18.198,27 21.168,24.0491056 21.168,24.0491056" id="Fill-84" fill="#CCCCCC"></path>
    </g>
</svg>
